<svg width="24" height="24" viewBox="0 0 24 24" fill="none" xmlns="http://www.w3.org/2000/svg">
<path d="M17.38 10.79C15.94 13.62 13.62 15.94 10.79 17.38L8.59 15.18C8.31 14.9 7.92 14.82 7.57 14.93C6.45 15.3 5.25 15.5 4 15.5C3.73478 15.5 3.48043 15.6054 3.29289 15.7929C3.10536 15.9804 3 16.2348 3 16.5V20C3 20.2652 3.10536 20.5196 3.29289 20.7071C3.48043 20.8946 3.73478 21 4 21C8.50868 21 12.8327 19.2089 16.0208 16.0208C19.2089 12.8327 21 8.50868 21 4C21 3.73478 20.8946 3.48043 20.7071 3.29289C20.5196 3.10536 20.2652 3 20 3H16.5C16.2348 3 15.9804 3.10536 15.7929 3.29289C15.6054 3.48043 15.5 3.73478 15.5 4C15.5 5.25 15.3 6.45 14.93 7.57C14.82 7.92 14.9 8.31 15.18 8.59L17.38 10.79Z" fill="white"/>
</svg>
