<svg width="36" height="36" viewBox="0 0 36 36" fill="none" xmlns="http://www.w3.org/2000/svg">
<g clip-path="url(#clip0_44_167)">
<path d="M35.6783 32.6454H35.6753L32.9945 10.1292C32.9587 9.82733 32.7027 9.6 32.3987 9.6H25.7987V7.8C25.7987 3.49215 22.3066 0 17.9987 0C13.6909 0 10.1987 3.49215 10.1987 7.8V9.6H3.5987C3.29473 9.6 3.03875 9.82733 3.0029 10.1292L0.322103 32.6454C0.126278 34.2907 1.30123 35.7831 2.9465 35.979C3.0644 35.993 3.18298 36.0001 3.3017 36H32.6987C34.3555 36.0004 35.699 34.6575 35.6993 33.0006C35.6994 32.8819 35.6923 32.7633 35.6783 32.6454ZM11.3987 7.8C11.3987 4.15492 14.3536 1.2 17.9987 1.2C21.6438 1.2 24.5987 4.15492 24.5987 7.8V9.6H11.3987V7.8ZM34.0421 34.1952C33.7011 34.5792 33.2123 34.7993 32.6987 34.8H3.3017C2.30758 34.8003 1.50148 33.9947 1.5011 33.0006C1.5011 32.9294 1.5053 32.8583 1.5137 32.7876L4.1315 10.8H10.1987V15C10.1987 15.3314 10.4674 15.6 10.7987 15.6C11.1301 15.6 11.3987 15.3314 11.3987 15V10.8H24.5987V15C24.5987 15.3314 24.8674 15.6 25.1987 15.6C25.5301 15.6 25.7987 15.3314 25.7987 15V10.8H31.8659L34.4837 32.7876C34.5444 33.2984 34.3837 33.8107 34.0421 34.1952Z" fill="black"/>
</g>
<defs>
<clipPath id="clip0_44_167">
<rect width="36" height="36" fill="white"/>
</clipPath>
</defs>
</svg>
