<svg width="36" height="36" viewBox="0 0 36 36" fill="none" xmlns="http://www.w3.org/2000/svg">
<g clip-path="url(#clip0_31_39)">
<path d="M35.6782 32.6454H35.6753L32.9945 10.1292C32.9586 9.82733 32.7026 9.6 32.3987 9.6H25.7987V7.8C25.7987 3.49215 22.3065 0 17.9987 0C13.6908 0 10.1986 3.49215 10.1986 7.8V9.6H3.59865C3.29467 9.6 3.0387 9.82733 3.00285 10.1292L0.32205 32.6454C0.126225 34.2907 1.30117 35.7831 2.94645 35.979C3.06435 35.993 3.18292 36.0001 3.30165 36H32.6987C34.3555 36.0004 35.699 34.6575 35.6992 33.0006C35.6993 32.8819 35.6923 32.7633 35.6782 32.6454ZM11.3986 7.8C11.3986 4.15492 14.3536 1.2 17.9987 1.2C21.6437 1.2 24.5987 4.15492 24.5987 7.8V9.6H11.3986V7.8ZM34.0421 34.1952C33.701 34.5792 33.2123 34.7993 32.6987 34.8H3.30165C2.30752 34.8003 1.50142 33.9947 1.50105 33.0006C1.50105 32.9294 1.50525 32.8583 1.51365 32.7876L4.13145 10.8H10.1986V15C10.1986 15.3314 10.4673 15.6 10.7986 15.6C11.13 15.6 11.3986 15.3314 11.3986 15V10.8H24.5987V15C24.5987 15.3314 24.8673 15.6 25.1987 15.6C25.53 15.6 25.7987 15.3314 25.7987 15V10.8H31.8659L34.4837 32.7876C34.5443 33.2984 34.3836 33.8107 34.0421 34.1952Z" fill="white"/>
</g>
<defs>
<clipPath id="clip0_31_39">
<rect width="36" height="36" fill="white"/>
</clipPath>
</defs>
</svg>
