<?xml version="1.0" encoding="utf-8"?><svg viewBox="0 0 30 34" xmlns="http://www.w3.org/2000/svg" xmlns:xlink="http://www.w3.org/1999/xlink"><style>:root>svg{display:none}:root>svg:target{display:block}</style><svg viewBox="0 0 23 23" id="close" xmlns="http://www.w3.org/2000/svg"><path d="M.646 21.86L21.86.647M22.566 21.86L1.353.646"/></svg><svg viewBox="0 0 24 24" id="phone" xmlns="http://www.w3.org/2000/svg"><path d="M17.38 10.79a15.097 15.097 0 01-6.59 6.59l-2.2-2.2c-.28-.28-.67-.36-1.02-.25-1.12.37-2.32.57-3.57.57a1 1 0 00-1 1V20a1 1 0 001 1A17 17 0 0021 4a1 1 0 00-1-1h-3.5a1 1 0 00-1 1c0 1.25-.2 2.45-.57 3.57-.11.35-.03.74.25 1.02l2.2 2.2z"/></svg><svg viewBox="0 0 30 34" id="play" xmlns="http://www.w3.org/2000/svg"><path d="M29 15.268c1.333.77 1.333 2.694 0 3.464L3.5 33.455c-1.333.77-3-.193-3-1.733V2.278C.5.738 2.167-.224 3.5.546L29 15.268z"/></svg><svg viewBox="0 0 8 8" id="socials-arrow" xmlns="http://www.w3.org/2000/svg"><path d="M7.65 1A.65.65 0 007 .35H1.15a.65.65 0 000 1.3h5.2v5.2a.65.65 0 001.3 0V1zM1.46 7.46l6-6-.92-.92-6 6 .92.92z"/></svg></svg>