<svg width="261" height="20" viewBox="0 0 261 20" fill="none" xmlns="http://www.w3.org/2000/svg">
<g clip-path="url(#clip0_31_274)">
<g opacity="0.35">
<path d="M24.1455 1.10254L21.0811 19.0861H25.9822L29.0492 1.10254H24.1455Z" fill="#181B11"/>
<path d="M16.9698 1.12121L12.1695 13.3855L11.6577 11.5337C10.711 9.30244 8.02342 6.09802 4.86816 4.07855L9.25754 19.0758L14.4436 19.067L22.1622 1.11743L16.9698 1.12121Z" fill="#181B11"/>
<path d="M9.7973 2.40902C9.51241 1.31357 8.68672 0.987076 7.66186 0.947998H0.0630295L0 1.30601C5.91343 2.74056 9.82629 6.1971 11.4499 10.3533L9.7973 2.40902Z" fill="#181B11"/>
<path d="M38.9803 4.54952C40.5838 4.52431 41.7461 4.87476 42.6486 5.23781L43.0911 5.4458L43.7542 1.54806C42.7835 1.18375 41.262 0.792969 39.3635 0.792969C34.5204 0.792969 31.1067 3.23221 31.0802 6.72782C31.0487 9.31077 33.5119 10.7529 35.3725 11.6139C37.2823 12.4963 37.9227 13.0572 37.9139 13.8451C37.8987 15.049 36.3911 15.6011 34.983 15.6011C33.0203 15.6011 31.9777 15.3301 30.368 14.6595L29.7364 14.372L29.0469 18.3971C30.194 18.9001 32.3105 19.3325 34.5077 19.3551C39.6598 19.3551 43.0079 16.9449 43.0432 13.2098C43.0646 11.1664 41.7574 9.60701 38.9249 8.32751C37.2105 7.493 36.1616 6.93834 36.1717 6.09627C36.1717 5.34874 37.0617 4.54952 38.9803 4.54952Z" fill="#181B11"/>
<path d="M56.3322 1.12207H52.5454C51.3693 1.12207 50.4944 1.44226 49.9776 2.61461L42.7002 19.0956H47.8472C47.8472 19.0956 48.6867 16.8795 48.8771 16.3941C49.4406 16.3941 54.4413 16.4017 55.1536 16.4017C55.2998 17.0295 55.7511 19.0956 55.7511 19.0956H60.298L56.3322 1.12207ZM50.2877 12.7132C50.6911 11.6808 52.2403 7.68722 52.2403 7.68722C52.2139 7.73639 52.6399 6.64723 52.8933 5.9703L53.2236 7.52082C53.2236 7.52082 54.1627 11.8144 54.3594 12.7132H50.2877Z" fill="#181B11"/>
<path d="M177.098 12.7547C177.155 12.7543 177.212 12.7656 177.265 12.7878C177.316 12.809 177.362 12.8397 177.401 12.8783C177.44 12.9168 177.472 12.9625 177.493 13.0128C177.516 13.0645 177.527 13.1202 177.527 13.1765C177.527 13.2328 177.516 13.2885 177.493 13.3402C177.472 13.3903 177.44 13.4358 177.401 13.4741C177.362 13.5127 177.316 13.5436 177.265 13.5651C177.212 13.5877 177.155 13.5992 177.098 13.5988C177.013 13.5997 176.93 13.5756 176.859 13.5296C176.788 13.4836 176.733 13.4177 176.699 13.3402C176.677 13.2885 176.665 13.2328 176.665 13.1765C176.665 13.1202 176.677 13.0645 176.699 13.0128C176.743 12.9106 176.825 12.8298 176.928 12.7878C176.981 12.7655 177.039 12.7542 177.098 12.7547ZM177.098 13.5057C177.141 13.506 177.185 13.4972 177.225 13.4799C177.264 13.4631 177.299 13.4392 177.328 13.4095C177.39 13.3475 177.424 13.2639 177.424 13.1767C177.424 13.0895 177.39 13.0059 177.328 12.9439C177.299 12.9143 177.264 12.8906 177.225 12.8742C177.185 12.8571 177.141 12.8484 177.098 12.8488C177.053 12.8485 177.009 12.8571 176.968 12.8742C176.918 12.8952 176.875 12.9281 176.841 12.9699C176.807 13.0117 176.784 13.0612 176.774 13.114C176.763 13.1668 176.766 13.2213 176.781 13.2728C176.797 13.3243 176.825 13.3713 176.863 13.4095C176.893 13.4394 176.929 13.4633 176.968 13.4799C177.009 13.4972 177.053 13.506 177.098 13.5057ZM177.123 12.9791C177.164 12.9764 177.205 12.9883 177.239 13.0128C177.252 13.0238 177.263 13.0379 177.27 13.0537C177.277 13.0696 177.281 13.0869 177.28 13.1043C177.28 13.1192 177.278 13.134 177.272 13.1478C177.266 13.1616 177.258 13.1741 177.247 13.1844C177.221 13.2072 177.189 13.2209 177.155 13.2232L177.283 13.3712H177.183L177.064 13.2242H177.025V13.3712H176.942V12.9791H177.123ZM177.025 13.0526V13.1571H177.122C177.14 13.158 177.158 13.1535 177.174 13.1441C177.181 13.1398 177.186 13.1338 177.189 13.1268C177.193 13.1198 177.194 13.1121 177.194 13.1043C177.194 13.0967 177.193 13.0891 177.189 13.0823C177.186 13.0755 177.181 13.0697 177.174 13.0655C177.158 13.0562 177.14 13.0517 177.122 13.0526H177.025ZM133.264 13.3699V9.19598C133.264 7.62381 132.262 6.56645 130.648 6.55251C130.188 6.52257 129.729 6.6165 129.318 6.82451C128.907 7.03252 128.559 7.34699 128.311 7.73515C128.085 7.35856 127.761 7.04994 127.374 6.84181C126.987 6.63368 126.551 6.53374 126.113 6.55251C125.73 6.53329 125.349 6.61432 125.007 6.78759C124.666 6.96085 124.375 7.22035 124.165 7.54037V6.71948H122.718V13.3699H124.179V9.6829C124.179 8.52815 124.819 7.91609 125.806 7.91609C126.766 7.91609 127.253 8.54209 127.253 9.66906V13.3699H128.714V9.6829C128.714 8.52815 129.382 7.91609 130.342 7.91609C131.33 7.91609 131.803 8.54209 131.803 9.66906V13.3699H133.264ZM141.417 10.0447V6.71948H139.97V7.52642C139.723 7.20815 139.403 6.95365 139.038 6.78421C138.672 6.61477 138.271 6.53532 137.869 6.55251C136.005 6.55251 134.544 8.01348 134.544 10.0447C134.544 12.076 136.005 13.5369 137.869 13.5369C138.272 13.5541 138.672 13.4747 139.038 13.3052C139.403 13.1358 139.723 12.8813 139.97 12.563V13.3699H141.417V10.0447ZM136.033 10.0447C136.033 8.87596 136.798 7.91609 138.05 7.91609C139.246 7.91609 140.053 8.83423 140.053 10.0447C140.053 11.2551 139.246 12.1733 138.05 12.1733C136.798 12.1733 136.033 11.2134 136.033 10.0447ZM172.378 6.5447C172.867 6.53997 173.352 6.63084 173.805 6.81218C174.228 6.9809 174.614 7.23099 174.941 7.54826C175.262 7.86361 175.517 8.24022 175.691 8.65584C176.052 9.54646 176.052 10.5429 175.691 11.4335C175.517 11.8492 175.262 12.226 174.941 12.5414C174.614 12.8586 174.228 13.1086 173.805 13.2773C172.887 13.6339 171.869 13.6339 170.951 13.2773C170.529 13.1091 170.144 12.859 169.819 12.5414C169.499 12.2251 169.246 11.8485 169.073 11.4335C168.712 10.5428 168.712 9.54654 169.073 8.65584C169.246 8.24094 169.5 7.86449 169.819 7.54826C170.144 7.23058 170.529 6.98041 170.951 6.81218C171.405 6.63084 171.89 6.53997 172.378 6.5447ZM172.378 7.91284C172.095 7.91031 171.814 7.96339 171.552 8.06909C171.305 8.16839 171.08 8.31724 170.892 8.5065C170.703 8.69985 170.554 8.92886 170.455 9.18021C170.242 9.73692 170.242 10.3527 170.455 10.9094C170.554 11.1607 170.703 11.3897 170.892 11.583C171.08 11.7723 171.305 11.9212 171.552 12.0205C172.083 12.2289 172.673 12.2289 173.205 12.0205C173.453 11.9206 173.678 11.7718 173.868 11.583C174.059 11.3904 174.209 11.1613 174.309 10.9094C174.522 10.3527 174.522 9.73692 174.309 9.18021C174.209 8.9283 174.059 8.69917 173.868 8.5065C173.678 8.31769 173.453 8.16894 173.205 8.06909C172.942 7.9634 172.661 7.91031 172.378 7.91284ZM149.29 10.0447C149.277 7.97162 147.996 6.55251 146.132 6.55251C144.184 6.55251 142.821 7.97162 142.821 10.0447C142.821 12.1595 144.24 13.5369 146.23 13.5369C147.222 13.5718 148.193 13.2399 148.956 12.6047L148.247 11.5334C147.697 11.9737 147.017 12.2185 146.313 12.229C145.381 12.229 144.532 11.7978 144.323 10.6012H149.263C149.277 10.4204 149.29 10.2396 149.29 10.0447ZM144.337 9.46036C144.49 8.50037 145.075 7.84648 146.104 7.84648C147.037 7.84648 147.635 8.43075 147.788 9.46036H144.337ZM156.01 7.24823C155.191 6.76119 154.249 6.5197 153.297 6.55251C151.614 6.55251 150.528 7.35945 150.528 8.68118C150.528 9.76645 151.335 10.4343 152.824 10.643L153.506 10.7404C154.299 10.8516 154.674 11.0603 154.674 11.436C154.674 11.9508 154.146 12.243 153.158 12.243C152.363 12.2658 151.584 12.0208 150.946 11.5473L150.264 12.6742C151.107 13.2629 152.116 13.5653 153.144 13.5369C155.064 13.5369 156.177 12.6325 156.177 11.3664C156.177 10.1977 155.301 9.58551 153.854 9.37682L153.172 9.27942C152.546 9.19598 152.045 9.07084 152.045 8.62564C152.045 8.13861 152.518 7.84648 153.311 7.84648C154.039 7.85743 154.753 8.05376 155.384 8.41693L156.01 7.24823ZM162.337 6.71948H159.972L159.971 4.70215H158.51L158.511 6.71948H157.161V8.04123H158.511V11.0742C158.511 12.6187 159.109 13.5369 160.82 13.5369C161.46 13.5388 162.086 13.3604 162.629 13.0221L162.212 11.7838C161.824 12.0153 161.383 12.1446 160.932 12.1595C160.208 12.1595 159.972 11.7142 159.972 11.0465V8.04123H162.337V6.71948ZM167.344 6.55251C166.991 6.54211 166.642 6.6271 166.334 6.7985C166.025 6.96991 165.769 7.22139 165.591 7.52642V6.71948H164.158V13.3699H165.605V9.64117C165.605 8.54209 166.078 7.92989 167.024 7.92989C167.334 7.92564 167.641 7.98239 167.929 8.0969L168.374 6.73343C168.043 6.61511 167.695 6.55393 167.344 6.55251Z" fill="#181B11"/>
<path d="M104.259 2.13794H95.5088V17.8619H104.259V2.13794Z" fill="#C2C2C2"/>
<path d="M96.0654 10C96.064 8.48567 96.4072 6.99086 97.0689 5.62876C97.7306 4.26665 98.6935 3.07295 99.8848 2.138C98.4096 0.978459 96.6379 0.257355 94.7723 0.0571129C92.9066 -0.14313 91.0222 0.185562 89.3346 1.00563C87.6469 1.8257 86.224 3.10406 85.2285 4.69459C84.233 6.28511 83.7051 8.12363 83.7051 10C83.7051 11.8764 84.233 13.7149 85.2285 15.3054C86.224 16.8959 87.6469 18.1743 89.3346 18.9944C91.0222 19.8144 92.9066 20.1431 94.7723 19.9429C96.6379 19.7426 98.4096 19.0215 99.8848 17.862C98.6935 16.9271 97.7306 15.7333 97.0689 14.3712C96.4072 13.0091 96.064 11.5143 96.0654 10Z" fill="#A9A9A9"/>
<path d="M116.064 10C116.064 11.8763 115.536 13.7149 114.541 15.3054C113.545 16.8959 112.122 18.1743 110.435 18.9943C108.747 19.8144 106.863 20.1431 104.997 19.9429C103.132 19.7426 101.36 19.0215 99.8848 17.862C101.075 16.9261 102.037 15.7322 102.699 14.3703C103.36 13.0084 103.704 11.5141 103.704 10C103.704 8.4859 103.36 6.99157 102.699 5.62968C102.037 4.26779 101.075 3.07389 99.8848 2.138C101.36 0.978454 103.132 0.25735 104.997 0.0571102C106.863 -0.14313 108.747 0.185576 110.435 1.00566C112.122 1.82574 113.545 3.10409 114.541 4.69462C115.536 6.28514 116.064 8.12365 116.064 10Z" fill="#181B11"/>
<path fill-rule="evenodd" clip-rule="evenodd" d="M253.955 1.58643H242.661C243.268 5.3636 246.912 8.89709 250.919 8.89709H259.906C260.027 8.53156 260.027 8.04418 260.027 7.67864C260.027 4.267 257.355 1.58643 253.955 1.58643Z" fill="#636363"/>
<path fill-rule="evenodd" clip-rule="evenodd" d="M243.633 9.50635V18.6447H249.098V13.7709H253.955C256.627 13.7709 258.934 11.9432 259.663 9.50635H243.633Z" fill="#181B11"/>
<path fill-rule="evenodd" clip-rule="evenodd" d="M224.202 1.58643V18.6446H229.06C229.06 18.6446 230.274 18.6446 230.881 17.4262C234.16 10.8466 235.132 8.89709 235.132 8.89709H235.739V18.6446H241.204V1.58643H236.346C236.346 1.58643 235.132 1.70827 234.525 2.80487C231.731 8.40971 230.274 11.334 230.274 11.334H229.667V1.58643H224.202Z" fill="#181B11"/>
<path fill-rule="evenodd" clip-rule="evenodd" d="M201.129 18.6446V1.58643H206.594C206.594 1.58643 208.172 1.58643 209.022 4.02331C211.208 10.4811 211.451 11.334 211.451 11.334C211.451 11.334 211.937 9.75 213.88 4.02331C214.73 1.58643 216.309 1.58643 216.309 1.58643H221.774V18.6446H216.309V9.50631H215.702L212.666 18.6446H210.237L207.201 9.50631H206.594V18.6446H201.129Z" fill="#181B11"/>
</g>
</g>
<defs>
<clipPath id="clip0_31_274">
<rect width="261" height="20" fill="white"/>
</clipPath>
</defs>
</svg>
